<?xml version="1.0" encoding="utf-8"?><svg xmlns="http://www.w3.org/2000/svg" xmlns:xlink="http://www.w3.org/1999/xlink" width="1027" height="135" preserveAspectRatio="xMidYMid" viewBox="0 0 1027 135" style="z-index:1;margin-right:-2px;display:block;background-repeat-y:initial;background-repeat-x:initial;animation-play-state:paused" ><g transform="translate(513.5,67.5) scale(1,1) translate(-513.5,-67.5)" style="transform:matrix(1, 0, 0, 1, 0, 0);animation-play-state:paused" ><linearGradient id="lg-0.9975072739470414" x1="0" x2="1" y1="0" y2="0" style="animation-play-state:paused" ><stop stop-color="#ffffff" offset="0" style="animation-play-state:paused" ></stop>

  
<stop stop-color="#ffffff" offset="1" style="animation-play-state:paused" ></stop></linearGradient>
<path d="M 0 0 L 0 119.551 Q 85.5833 165.013 171.167 128.451 T 342.333 113.631 T 513.5 124.591 T 684.667 121.304 T 855.833 134.351 T 1027 129.631 L 1027 0 Z" fill="url(#lg-0.9975072739470414)" opacity="0.4" style="opacity:0.4;animation-play-state:paused" ></path>
<path d="M 0 0 L 0 125.318 Q 85.5833 167.081 171.167 126.052 T 342.333 115.054 T 513.5 119.462 T 684.667 121.985 T 855.833 121.355 T 1027 124.286 L 1027 0 Z" fill="url(#lg-0.9975072739470414)" opacity="0.4" style="opacity:0.4;animation-play-state:paused" ></path>
<path d="M 0 0 L 0 128.35 Q 85.5833 158.716 171.167 121.394 T 342.333 134.446 T 513.5 127.671 T 684.667 118.463 T 855.833 125.221 T 1027 115.714 L 1027 0 Z" fill="url(#lg-0.9975072739470414)" opacity="0.4" style="opacity:0.4;animation-play-state:paused" ></path>
<path d="M 0 0 L 0 119.229 Q 85.5833 163.152 171.167 130.347 T 342.333 124.286 T 513.5 118.363 T 684.667 127.172 T 855.833 126.261 T 1027 123.337 L 1027 0 Z" fill="url(#lg-0.9975072739470414)" opacity="0.4" style="opacity:0.4;animation-play-state:paused" ></path>
<path d="M 0 0 L 0 129.465 Q 85.5833 147.437 171.167 115.221 T 342.333 121.807 T 513.5 121.122 T 684.667 118.474 T 855.833 117.402 T 1027 122.274 L 1027 0 Z" fill="url(#lg-0.9975072739470414)" opacity="0.4" style="opacity:0.4;animation-play-state:paused" ></path></g></svg>