<?xml version="1.0" encoding="utf-8"?><svg xmlns="http://www.w3.org/2000/svg" xmlns:xlink="http://www.w3.org/1999/xlink" width="1377" height="338" preserveAspectRatio="xMidYMid" viewBox="0 0 1377 338" style="z-index:1;margin-right:-2px;display:block;background-repeat-y:initial;background-repeat-x:initial;background-color:rgb(241, 242, 243);animation-play-state:paused" ><g transform="translate(688.5,169) scale(1,1) translate(-688.5,-169)" style="transform:matrix(1, 0, 0, 1, 0, 0);animation-play-state:paused" ><linearGradient id="lg-0.6781065343932537" x1="0" x2="1" y1="0" y2="0" style="animation-play-state:paused" ><stop stop-color="#ffffff" offset="0" style="animation-play-state:paused" ></stop>

  
<stop stop-color="#ffffff" offset="1" style="animation-play-state:paused" ></stop></linearGradient>
<path d="M 0 0 L 0 284.019 Q 137.7 351.415 275.4 319.13 T 550.8 313.497 T 826.2 315.819 T 1101.6 302.15 T 1377 323.872 L 1377 0 Z" fill="url(#lg-0.6781065343932537)" opacity="0.4" style="opacity:0.4;animation-play-state:paused" ></path>
<path d="M 0 0 L 0 313.939 Q 137.7 364.891 275.4 323.733 T 550.8 330.87 T 826.2 326.896 T 1101.6 303.085 T 1377 316.341 L 1377 0 Z" fill="url(#lg-0.6781065343932537)" opacity="0.4" style="opacity:0.4;animation-play-state:paused" ></path>
<path d="M 0 0 L 0 306.607 Q 137.7 355.72 275.4 332.639 T 550.8 296.008 T 826.2 319.625 T 1101.6 293.551 T 1377 324.141 L 1377 0 Z" fill="url(#lg-0.6781065343932537)" opacity="0.4" style="opacity:0.4;animation-play-state:paused" ></path>
<path d="M 0 0 L 0 321.416 Q 137.7 314.458 275.4 288.249 T 550.8 297.981 T 826.2 287.223 T 1101.6 292.967 T 1377 323.072 L 1377 0 Z" fill="url(#lg-0.6781065343932537)" opacity="0.4" style="opacity:0.4;animation-play-state:paused" ></path>
<path d="M 0 0 L 0 305.747 Q 137.7 357.701 275.4 324.997 T 550.8 327.645 T 826.2 319.623 T 1101.6 292.978 T 1377 297.753 L 1377 0 Z" fill="url(#lg-0.6781065343932537)" opacity="0.4" style="opacity:0.4;animation-play-state:paused" ></path></g></svg>