<?xml version="1.0" encoding="utf-8"?><svg xmlns="http://www.w3.org/2000/svg" xmlns:xlink="http://www.w3.org/1999/xlink" width="1225" height="237" preserveAspectRatio="xMidYMid" viewBox="0 0 1225 237" style="z-index:1;margin-right:-2px;display:block;background-repeat-y:initial;background-repeat-x:initial;animation-play-state:paused" ><g transform="translate(612.5,118.5) scale(1,1) translate(-612.5,-118.5)" style="transform:matrix(1, 0, 0, 1, 0, 0);animation-play-state:paused" ><linearGradient id="lg-0.5164763098419822" x1="0" x2="1" y1="0" y2="0" style="animation-play-state:paused" ><stop stop-color="#ffffff" offset="0" style="animation-play-state:paused" ></stop>

  
<stop stop-color="#ffffff" offset="1" style="animation-play-state:paused" ></stop></linearGradient>
<path d="M 0 0 L 0 118.446 Q 306.25 214.21 612.5 182.258 T 1225 173.8 L 1225 0 Z" fill="url(#lg-0.5164763098419822)" opacity="0.4" style="opacity:0.4;animation-play-state:paused" ></path>
<path d="M 0 0 L 0 174.238 Q 306.25 125.339 612.5 92.8604 T 1225 153.89 L 1225 0 Z" fill="url(#lg-0.5164763098419822)" opacity="0.4" style="opacity:0.4;animation-play-state:paused" ></path>
<path d="M 0 0 L 0 94.0855 Q 306.25 92.2932 612.5 74.1917 T 1225 58.5858 L 1225 0 Z" fill="url(#lg-0.5164763098419822)" opacity="0.4" style="opacity:0.4;animation-play-state:paused" ></path>
<path d="M 0 0 L 0 77.0437 Q 306.25 206.786 612.5 182.243 T 1225 223.855 L 1225 0 Z" fill="url(#lg-0.5164763098419822)" opacity="0.4" style="opacity:0.4;animation-play-state:paused" ></path>
<path d="M 0 0 L 0 69.0741 Q 306.25 169.096 612.5 139.244 T 1225 150.674 L 1225 0 Z" fill="url(#lg-0.5164763098419822)" opacity="0.4" style="opacity:0.4;animation-play-state:paused" ></path></g></svg>